<svg id="Camada_1" data-name="Camada 1" xmlns="http://www.w3.org/2000/svg" viewBox="0 0 1080 295.92"><defs><style>.cls-1{fill:#42434f;}</style></defs><path class="cls-1" d="M262.16,237.45H200.79L210.17,192H136l7.1-33.24,84.66-101.7h73.3L276.93,168.13h25.85L297.67,192H271.82Zm-46.88-69.32,17.05-79-63.07,79Z"/><path class="cls-1" d="M414.71,115.29h58L446.53,237.45h-46l-5.11-18.18h-1.71q-7.4,8.8-20,14.63a60.3,60.3,0,0,1-25.42,5.82q-17.06,0-26.71-8.66t-9.66-22.59a82.69,82.69,0,0,1,2.42-17.76q2.4-10.65,4.4-20l11.93-55.4h57.67l-14.2,66.48q-.57,2.26-1.14,5.39c-.38,2.09-.76,4.12-1.13,6.11s-.71,3.89-1,5.68a30,30,0,0,0-.42,4.41,13.5,13.5,0,0,0,1.84,7.24q1.85,3,6.68,3a15.83,15.83,0,0,0,9.66-3.4,41,41,0,0,0,7.1-6.54Z"/><path class="cls-1" d="M562.16,151.08c.18-.94.38-1.89.57-2.84a16.67,16.67,0,0,0,.28-3.12,24.41,24.41,0,0,0-1.85-9.52c-1.23-2.93-3.65-4.4-7.24-4.4q-4.83,0-9.66,4.12a13.64,13.64,0,0,0-4.83,10.93,10.46,10.46,0,0,0,2.41,7.25,17.83,17.83,0,0,0,6.4,4.4,51.19,51.19,0,0,0,9,2.84L567,163a105.58,105.58,0,0,1,12.92,4.12,40.86,40.86,0,0,1,10.94,6.4,28.93,28.93,0,0,1,7.67,9.8,32.58,32.58,0,0,1,2.84,14.34q0,11.94-5.54,20a40,40,0,0,1-15.34,13.07,75.12,75.12,0,0,1-23,7,190.89,190.89,0,0,1-28.27,2q-23,0-38.07-3.41t-21-6.53l6-28.41h38.35a13.69,13.69,0,0,0-.28,2.7v2.7q0,6.53,3,10.37T527.5,221q8.24,0,11.79-4.69t3.55-8.66a9.57,9.57,0,0,0-3-7,26.32,26.32,0,0,0-7.53-5.12,65.58,65.58,0,0,0-10.09-3.69l-10.65-3a51.84,51.84,0,0,1-8.38-2.84,33.73,33.73,0,0,1-8.95-5.69,29.31,29.31,0,0,1-7.1-9.51q-2.85-5.82-2.84-14.63,0-12.51,6.1-20.88a45.2,45.2,0,0,1,15.91-13.5,78.4,78.4,0,0,1,22.16-7.39,137.59,137.59,0,0,1,24.86-2.27A148,148,0,0,1,582.9,115q13.9,2.85,22.72,7.39l-6.53,28.69Z"/><path class="cls-1" d="M674.09,180.34a113.26,113.26,0,0,0-1.56,11.94c-.28,3.79-.43,7.2-.43,10.22,0,1.71.1,3.6.29,5.69a22.06,22.06,0,0,0,1.28,5.82,12.22,12.22,0,0,0,2.84,4.55,7.1,7.1,0,0,0,5.25,1.84,13,13,0,0,0,5.83-1.7,29.39,29.39,0,0,0,6.53-4.83,43.7,43.7,0,0,0,6.25-7.67A38.94,38.94,0,0,0,705.06,196h46.59l-7.39,30.4a60.16,60.16,0,0,1-13.06,6.25,111.63,111.63,0,0,1-15.63,4.12A161.62,161.62,0,0,1,698.81,239q-8.52.7-16.19.71a128.62,128.62,0,0,1-26.43-2.56,58.06,58.06,0,0,1-21.3-8.8,43.71,43.71,0,0,1-14.35-16.62q-5.26-10.37-5.26-25.71a86.51,86.51,0,0,1,4.41-27.28A59.64,59.64,0,0,1,634.46,135q10.37-10.36,27.84-16.62t43.61-6.25q28.41,0,42.76,8.81T763,148.53a67.6,67.6,0,0,1-2.27,16.62,44,44,0,0,1-6.82,15.19Zm37.79-33.8q0-8.81-2.84-11.93a8.9,8.9,0,0,0-6.82-3.13,13.33,13.33,0,0,0-8.38,3,30.46,30.46,0,0,0-7,8,69.53,69.53,0,0,0-5.68,11.36,97.21,97.21,0,0,0-4.27,13.5h32.39c.38-2.28.76-4.64,1.14-7.11.37-2.08.71-4.35,1-6.81A58.56,58.56,0,0,0,711.88,146.54Z"/><path class="cls-1" d="M885.74,46.54H944L903.36,237.45h-46l-5.11-18.18h-2a42.67,42.67,0,0,1-5.26,6.1,46.9,46.9,0,0,1-8.94,6.82,53,53,0,0,1-12.79,5.4,61.73,61.73,0,0,1-17,2.13q-10,0-16.91-3a30.57,30.57,0,0,1-11.36-8.1,31.23,31.23,0,0,1-6.39-12.36,59.19,59.19,0,0,1-2-15.76c0-2.46.18-6.4.57-11.79a125.29,125.29,0,0,1,2.69-17.9,129.22,129.22,0,0,1,6.25-20.17,71.61,71.61,0,0,1,11.08-18.9,57,57,0,0,1,17.19-14.06q10.23-5.53,24.72-5.54a59.79,59.79,0,0,1,9.66.85,36.16,36.16,0,0,1,9.8,3.13,25.42,25.42,0,0,1,13.78,17.61h2ZM851.08,140q-6.81,0-11.36,7.53A71.87,71.87,0,0,0,832.33,165a136.81,136.81,0,0,0-4.12,19.89,128.27,128.27,0,0,0-1.27,14.77,23.4,23.4,0,0,0,1.7,9.52c1.14,2.56,3.31,3.84,6.53,3.84a12.86,12.86,0,0,0,5.54-1.28,29.08,29.08,0,0,0,9.24-7c1.13-1.33,2.08-2.46,2.84-3.41l11.08-51.71a38.51,38.51,0,0,0-5.26-6.39A10.39,10.39,0,0,0,851.08,140Z"/><path class="cls-1" d="M390,60.84q10.55,0,15.34,3.73,5.07,3.9,5.06,13a26,26,0,0,1-1.86,10.07A19.6,19.6,0,0,1,403.31,95q-6.74,5.67-19.51,5.67-10.92,0-15.62-4.17-5.06-4.34-5.05-13A23,23,0,0,1,365.48,73a20.69,20.69,0,0,1,6.78-7.81Q378.74,60.84,390,60.84Zm-6,33.8q2.22,0,3.86-2.48a20.76,20.76,0,0,0,2.62-6.08,59.4,59.4,0,0,0,1.95-14.15,11.07,11.07,0,0,0-.49-3.77,2,2,0,0,0-2.08-1.29,5,5,0,0,0-4.13,2.58,22.45,22.45,0,0,0-2.79,6.12,45.39,45.39,0,0,0-1.55,7.27,47.9,47.9,0,0,0-.49,6Q380.87,94.65,384,94.64Z"/><path class="cls-1" d="M434.72,100h-18.1l12.6-59.61H447.4Z"/><path class="cls-1" d="M484.84,40.35H503L490.34,100H476l-1.6-5.67h-.62a13.12,13.12,0,0,1-1.64,1.9,14.76,14.76,0,0,1-2.79,2.13,17,17,0,0,1-4,1.69,19.35,19.35,0,0,1-5.32.66,13.41,13.41,0,0,1-5.28-.93,9.52,9.52,0,0,1-3.55-2.53,9.78,9.78,0,0,1-2-3.86,18.21,18.21,0,0,1-.62-4.92c0-.77.06-2,.17-3.68a38.89,38.89,0,0,1,.85-5.59,39.68,39.68,0,0,1,1.95-6.3A22.37,22.37,0,0,1,455,67a17.78,17.78,0,0,1,5.37-4.39,16,16,0,0,1,7.71-1.73,18.09,18.09,0,0,1,3,.27,11.37,11.37,0,0,1,3.06,1,8.35,8.35,0,0,1,2.62,2,8.18,8.18,0,0,1,1.68,3.46h.62ZM474,69.54a4.11,4.11,0,0,0-3.55,2.35,22.08,22.08,0,0,0-2.31,5.45,41.52,41.52,0,0,0-1.28,6.21,39.18,39.18,0,0,0-.4,4.62,7.24,7.24,0,0,0,.53,3,2,2,0,0,0,2,1.19,4.08,4.08,0,0,0,1.73-.39,9.16,9.16,0,0,0,1.6-1,7.8,7.8,0,0,0,1.28-1.2c.36-.41.65-.77.89-1.06L478,72.55a11.71,11.71,0,0,0-1.64-2A3.22,3.22,0,0,0,474,69.54Z"/><path class="cls-1" d="M542.06,100h-18l8.07-38.14h18.19ZM552.62,50.2a7,7,0,0,1-.85,3.54,8.43,8.43,0,0,1-2.21,2.58,9.54,9.54,0,0,1-3.15,1.59,12.49,12.49,0,0,1-3.64.54,10,10,0,0,1-5.94-1.69,6,6,0,0,1-2.4-5.32,7.62,7.62,0,0,1,.8-3.51,7.4,7.4,0,0,1,2.17-2.57,9.92,9.92,0,0,1,3.2-1.55,13.16,13.16,0,0,1,3.77-.53A9.92,9.92,0,0,1,550.22,45,6,6,0,0,1,552.62,50.2Z"/><path class="cls-1" d="M582.6,73l.18-.89a5,5,0,0,0,.09-1,7.71,7.71,0,0,0-.58-3A2.21,2.21,0,0,0,580,66.79a4.7,4.7,0,0,0-3,1.28,4.3,4.3,0,0,0-1.51,3.42,3.28,3.28,0,0,0,.76,2.26,5.55,5.55,0,0,0,2,1.37,15.35,15.35,0,0,0,2.8.89l3.06.71a34.1,34.1,0,0,1,4,1.29,12.67,12.67,0,0,1,3.41,2,9.15,9.15,0,0,1,2.4,3.06,10.22,10.22,0,0,1,.88,4.48,10.78,10.78,0,0,1-1.73,6.26,12.5,12.5,0,0,1-4.79,4.08,23.57,23.57,0,0,1-7.18,2.17,58.65,58.65,0,0,1-8.83.62,55.25,55.25,0,0,1-11.89-1.06,30.08,30.08,0,0,1-6.56-2l1.86-8.87h12a4.14,4.14,0,0,0-.09.84v.84a5.16,5.16,0,0,0,.93,3.24,3.87,3.87,0,0,0,3.24,1.2,4.32,4.32,0,0,0,3.68-1.47,4.57,4.57,0,0,0,1.11-2.7,3,3,0,0,0-.93-2.17,8,8,0,0,0-2.35-1.6,20.69,20.69,0,0,0-3.15-1.15l-3.33-.94a15.79,15.79,0,0,1-2.62-.88,10.85,10.85,0,0,1-2.79-1.78,9.18,9.18,0,0,1-2.22-3,10.39,10.39,0,0,1-.89-4.57,10.8,10.8,0,0,1,1.91-6.52,14.1,14.1,0,0,1,5-4.21,24.5,24.5,0,0,1,6.92-2.31,43.08,43.08,0,0,1,7.76-.71,46.25,46.25,0,0,1,9.23.89A27.41,27.41,0,0,1,596.17,64l-2,9Z"/><path class="cls-1" d="M663.77,97.83a36.27,36.27,0,0,1-7.85,2.18,59.68,59.68,0,0,1-9.36.66,36.15,36.15,0,0,1-8.47-.93,19,19,0,0,1-6.7-3A14,14,0,0,1,627,91.49a17.52,17.52,0,0,1-1.6-7.85A24,24,0,0,1,627,74.73a19.86,19.86,0,0,1,5-7.23,23.37,23.37,0,0,1,8.47-4.88,37.45,37.45,0,0,1,12.24-1.78,47.49,47.49,0,0,1,10,.93,12.34,12.34,0,0,1,7,4.22l-2.49,11.35H655.17c.06-1,.12-1.89.18-2.66s.08-1.63.08-2.57a9.38,9.38,0,0,0-.62-4,2.12,2.12,0,0,0-2-1.2,5.41,5.41,0,0,0-4.34,2.44,20.66,20.66,0,0,0-3.06,5.86,39.48,39.48,0,0,0-1.78,7.18,44.36,44.36,0,0,0-.58,6.44c0,.65,0,1.31.09,2a7.71,7.71,0,0,0,.4,1.91,3.73,3.73,0,0,0,.85,1.42,2,2,0,0,0,1.5.53,5.06,5.06,0,0,0,2-.53,7.49,7.49,0,0,0,2.22-1.64,13.51,13.51,0,0,0,2-2.89,15.44,15.44,0,0,0,1.51-4.25h12.69Z"/><path class="cls-1" d="M703,60.84q10.56,0,15.35,3.73,5.05,3.9,5.06,13a26,26,0,0,1-1.86,10.07A19.71,19.71,0,0,1,716.29,95q-6.74,5.67-19.52,5.67-10.9,0-15.61-4.17-5.05-4.34-5.06-13A23,23,0,0,1,678.46,73a20.6,20.6,0,0,1,6.78-7.81Q691.72,60.84,703,60.84Zm-6,33.8q2.22,0,3.86-2.48a21,21,0,0,0,2.62-6.08,59.4,59.4,0,0,0,2-14.15,11.07,11.07,0,0,0-.49-3.77,2,2,0,0,0-2.08-1.29,5,5,0,0,0-4.13,2.58,22.45,22.45,0,0,0-2.79,6.12,45.39,45.39,0,0,0-1.55,7.27,47.9,47.9,0,0,0-.49,6Q693.85,94.65,697,94.64Z"/><path class="cls-1" d="M758.43,60.84q10.56,0,15.35,3.73,5.06,3.9,5.05,13A26,26,0,0,1,777,87.59,19.69,19.69,0,0,1,771.74,95q-6.75,5.67-19.52,5.67-10.9,0-15.61-4.17-5.07-4.34-5.06-13A23,23,0,0,1,733.9,73a20.72,20.72,0,0,1,6.79-7.81Q747.16,60.84,758.43,60.84Zm-6,33.8c1.48,0,2.76-.83,3.86-2.48a21,21,0,0,0,2.61-6.08,58.07,58.07,0,0,0,2-14.15,11.37,11.37,0,0,0-.48-3.77,2,2,0,0,0-2.09-1.29,5,5,0,0,0-4.12,2.58,22.16,22.16,0,0,0-2.8,6.12,45.39,45.39,0,0,0-1.55,7.27,47.9,47.9,0,0,0-.49,6Q749.29,94.65,752.4,94.64Z"/><path class="cls-1" d="M803.14,100H785l12.6-59.61h18.19Z"/></svg>